<svg xmlns="http://www.w3.org/2000/svg" width="120" height="120" xmlns:v="https://vecta.io/nano"><g transform="matrix(.499686 0 0 .500171 -.000506 0)" fill="#5339d3"><path d="M1.823 0H238.1c2.98 1.252 1.83 10.52 1.83 15.96v208.792c0 5.694.92 14.33-1.567 15.165H1.56c-.667-.45-1.208-1.038-1.562-1.83L0 1.822A4.43 4.43 0 0 1 1.823 0zm15.962 7.065c1.2-.822 2.634-1.375 3.663-2.355-2.617.174-5.926-.35-8.107.264 1.503.664 2.78 1.57 4.444 2.1zm.517 5.494C12.63 17.095 9.1 22.282 6.795 28.785c-5.417 15.172.945 29.473 8.63 37.16 6.06 6.058 14.324 10.5 25.37 10.453 19.625-.06 36.25-15.598 35.85-36.368-.392-20.256-16.33-36.316-37.682-35.06-8.663.5-15.512 3.47-20.663 7.6zm51.033-1.307c5.352-2.5 11.203-4.5 17-6.542-8.722.174-18.138-.35-26.432.264 3.724 1.346 6.62 4.88 9.433 6.278zm3.13 3.662c4.498 6.584 8.452 13.717 8.9 24.332 4.98 2.087 9.32 4.812 14.13 7.065l20.67-41.6h-.522c-16.888.903-30.695 4.885-43.178 10.204zm71.957 30.874c5.123-2.12 9.795-4.7 14.658-7.065.27-10.542 4.3-17.326 8.633-23.808-12.46-5.413-26.4-9.36-43.438-10.204 5.85 13.512 13.58 27.413 20.147 41.077zm26.693-34.536c2.824-2.3 5.76-4.532 8.892-6.542-8.542.174-17.792-.35-25.896.26 6.174 1.588 11.413 4.114 17.004 6.282zm3.404 3.662c-5.45 5.26-9.967 12.052-10.725 21.977-1.063 13.78 4.2 23.134 10.46 29.3 8.176 8.08 21.365 12.152 33.75 9.167 10.95-2.653 19.932-10.602 24.326-20.67 5.327-12.2 2.1-27.016-3.914-35.324-5.774-7.956-16.694-15.298-30.876-14.4-10.127.638-17.158 4.283-23.02 9.94zm47.62-7.85c1.602-.66 3.278-1.256 4.454-2.355-2.53.174-5.754-.35-7.854.264 1.202.63 2.42 1.243 3.4 2.1zm4.446 3.403c1.196.805 1.938 2.078 3.144 2.87.392-2.08 2.973-4.655 2.358-6.018-1.602 1.277-4.046 1.72-5.502 3.147zM10.46 13.083c1.408-.6 2.164-1.848 3.135-2.88-2.118-.656-3.626-1.946-5.75-2.615.7 2.006 1.77 3.633 2.616 5.494zM101 45.788c10.78-3.343 27.83-2.7 38.206-.264-6.568-12.36-12.53-25.33-19.106-37.688L101 45.788zM4.96 21.456a18.42 18.42 0 0 1 2.36-3.922c-.733-1.9-1.595-3.637-2.615-5.226.165 2.955-.353 6.618.256 9.148zm227.9-3.932c.817 1.193 1.37 2.636 2.35 3.67-.17-2.7.35-6.103-.264-8.377-.487 1.777-1.6 2.935-2.087 4.706zM149.13 49.2c4.604 1.755 8.696 4.042 12.567 6.542-1.333-3.56-2.057-7.726-2.88-11.775-2.998 1.976-6.83 3.113-9.688 5.233zM78.5 55.464c4-2.02 7.417-4.625 12.035-6.022-2.646-2.146-6.188-3.4-9.418-4.97-.277 4.267-1.314 7.763-2.617 10.992zm24.85-5.234c5.532 2.67 10.813 5.58 16.5 8.1 5.2-2.998 11-5.37 16.217-8.373-9.134-2.54-23.86-2.556-32.707.264zm38.734 2.1c-5.443 3.194-11.725 5.55-17 8.897 9.9 4.306 19.4 10.418 29.045 14.128-4.276-7.414-7.47-15.904-12.035-23.025zm-44.485.256l-11.25 22.25c9.333-4.634 18.987-8.924 27.735-14.128-5.67-2.535-10.958-5.443-16.484-8.122zM54.42 91.052c8.103-4.36 16.604-8.338 24.85-12.56L91.3 54.16c-16.9 7.508-29.975 20.26-36.9 36.9zm106.75-11.78l24.858 12.295c-7.623-17.24-20.017-29.703-37.157-37.416-.158.017-.3.042-.27.27 4.377 8.113 8.35 16.603 12.57 24.852zm-156.2 6.8c1.718-6.133 3.865-11.848 6.542-17C9.2 65.966 6.746 63.015 4.7 59.66c.18 8.7-.34 18.135.27 26.423zm223.718-17c2.548 5.3 4.574 11.132 6.542 17-.17-8.722.35-18.142-.264-26.436-1.34 3.893-4.378 6.1-6.278 9.427zM157.764 82.68c-12.87-6.043-25.166-12.674-37.93-18.834-12.068 5.206-24.676 12.13-36.897 18.063l-19.104 37.935 18.583 37.4c12.812 6.1 25.263 12.593 37.928 18.832 12.13-6.366 24.624-12.354 36.906-18.577l18.833-37.936-18.32-36.892zM15.172 72.2C9.414 84.425 5.66 98.65 4.706 115.64c13.986-6.6 27.356-13.8 41.342-20.4-1.925-5.055-4.602-9.36-6.812-14.123-10.4-.6-17.635-4.335-24.064-8.896zm209.582 0c-6.176 4.723-13.586 8.215-23.808 8.896-2.593 4.736-5.033 9.62-7.33 14.646 14.037 6.716 27.712 13.8 41.6 20.67-.73-17.48-4.524-31.924-10.464-44.2zM44.468 80.848c1.562 3.23 2.82 6.776 4.977 9.42 1.418-4.438 4.515-8.578 6.02-12.04-3.163 1.384-6.863 2.214-10.998 2.62zm146.53 9.68c1.394-3.395 3.177-6.427 4.7-9.685-4.45-.01-8.338-1.955-11.52-2.355 2.883 3.416 4.468 8.105 6.8 12.04zM52.6 97.07a312.15 312.15 0 0 0 8.63 17.267c4.47-9.655 10.384-19.272 14.12-28.783-7.403 4.016-15.197 7.65-22.75 11.516zm126.374 17.262l8.373-16.747c-7.76-3.134-14.9-8.305-22.503-10.728 4.94 8.93 9.046 18.702 14.13 27.475zM7.836 119.57L45.52 138.4c-3.066-11.004-2.317-27.605 0-37.938C33.17 107.04 20.2 113 7.836 119.57zm186.306 19.366l37.682-18.837-37.418-18.834c2.76 10.762 2.954 27.24-.264 37.67zm-143.912-2.62c1.2-2.714 2.726-5.2 4.2-8.104 1.17-2.316 3.975-6.27 3.916-8.633-.045-1.895-2.56-5.14-3.916-7.85-1.8-3.543-2.98-6.93-4.453-8.632-2.266 9.433-2.82 24.216.264 33.218zm131.347-16.222c2.82 5.467 5.4 11.167 8.382 16.482 2.453-9.85 2.794-24.037-.27-33.5-2.472 5.9-5.785 10.97-8.1 17.018zM14.906 167.45c6.584-4.24 13.17-8.453 23.8-8.633 2.62-4.8 5.056-9.76 7.583-14.642l-41.596-20.66c.744 17.288 4.76 31.327 10.203 43.937zm178.97-23.02c2.36 4.804 4.396 9.903 7.334 14.12 8.952.522 16.26 3.883 21.7 7.584.613.414 1.295 1.475 2.087 1.04 5.707-12.086 9.36-26.225 10.213-43.162h-.52l-40.825 20.418zM52.6 142.074c7.548 3.522 15.35 8.198 22.758 10.992-5.026-9.097-9.214-19.037-14.386-27.998-2.62 5.844-5.612 11.308-8.372 17.006zm111.715 11.775c7.9-3.54 15.152-7.7 23.03-11.25-2.556-6.162-5.64-11.806-8.633-17.537-4.594 9.802-9.713 19.07-14.398 28.787zm-72.733 31.91c-4.448-8.274-8.52-16.95-12.817-25.37-8.592-3.8-16.294-8.47-24.86-12.295 7.526 17.408 20.655 30.62 37.678 37.664zm69.343-24.85a662.25 662.25 0 0 0-12.562 25.122c17.265-7.6 29.64-20.08 37.407-37.156-.05-.2-.213-.294-.5-.265-7.942 4.277-16.26 8.168-24.334 12.3zM44.2 158.815c4.354.27 7.907 1.342 11.252 2.62-2.38-3.905-4.408-8.146-6.542-12.28-1.4 3.4-3.175 6.4-4.7 9.662zm140.5 2.6c3.066-1.55 7.23-2.014 10.996-2.87-1.864-2.936-3.107-6.478-4.975-9.412-1.476 4.45-4.512 8.73-6.02 12.28zM4.96 180c1.422-3.648 4.906-6.602 6.27-9.42-2.483-5.27-4.436-11.1-6.53-16.74.18 8.63-.338 17.964.27 26.162zm223.718-8.897c2.53 2.623 4.574 5.72 6.542 8.896-.17-8.634.35-17.97-.264-26.162-1.473 6.364-4.113 11.577-6.278 17.266zM14.644 174.5c-4.963 5.314-9.975 13.914-9.938 24.858.06 20.692 16.292 35.918 36.104 35.85 19.812-.086 35.765-15.574 35.586-36.375-.093-10.183-5.068-19.8-10.725-25.37-6-5.924-15.8-10.596-26.693-9.943-11.365.662-19.05 5.318-24.334 10.978zm159.874-1.308c-5.257 5.114-9.778 12.073-10.725 21.716-1.414 14.395 4.625 24.32 10.46 30.074 8.262 8.143 20.894 12.266 33.75 9.17 10.95-2.646 20.118-10.644 24.326-20.667 5.36-12.764 1.528-27.844-3.914-35.326-5.996-8.244-16.644-15.554-30.876-14.65-9.902.633-17.712 4.513-23.02 9.684zM97.85 187.336c5.44-3.194 11.72-5.55 17-8.896-9.736-4.3-19.34-10.14-28.785-13.868 4.17 7.357 7.48 15.55 11.784 22.764zm27.734-8.633l16.745 8.373c3.697-7.304 8.17-15.2 10.996-22.5-9.046 4.9-18.696 9.2-27.74 14.126zM103.34 189.95c9.902 2.517 24.2 2.8 33.755-.27-5.945-2.52-11.038-5.887-17.005-8.373-5.52 2.948-11.507 5.42-16.75 8.642zM81.1 195.7c2.944-1.86 6.485-3.108 9.42-4.97-4.36-1.92-8.486-4.07-12.293-6.54 1.44 3.357 2.04 7.55 2.872 11.512zm68.56-4.715c3.343 1.282 6.077 3.177 9.42 4.45.384-3.975 1.385-7.333 2.35-10.73.27-.013.205-.332-.268-.27-3.3 2.72-7.832 4.205-11.503 6.548zm-4.978 2.623c-7.496 13.43-14.098 27.76-21.184 41.6 17.554-.584 31.583-4.707 44.223-10.2-4.28-6.625-8.45-13.35-8.633-24.074-4.637-2.607-9.628-4.852-14.406-7.318zm-49.18.26h-.528c-4.53 2.53-9.763 4.36-13.872 7.33-.453 10.187-4.966 17.718-8.63 23.8 12.408 5.3 26.923 9.896 43.704 9.938-7.07-13.515-13.76-27.4-20.673-41.078zm24.6 37.937c6.022-12.64 12.418-24.908 18.577-37.412-10.75 2.813-27.256 2.917-37.677-.27 6.272 12.653 12.235 25.617 19.1 37.68zM4.96 226.32c.725-1.278 1.218-2.794 2.1-3.918-.648-1.444-1.532-2.657-2.358-3.918.178 2.517-.34 5.745.27 7.836zm227.9-3.667c.817 1.45 1.38 3.15 2.35 4.45-.17-2.793.35-6.27-.264-8.627-.375 1.722-1.67 2.514-2.087 4.178zM7.312 232.34c2.125-.934 4.327-1.777 6.027-3.146-1.2-.812-1.94-2.078-3.148-2.875-.924 2.038-2.1 3.84-2.88 6.02zm219.273-2.88l5.754 2.88c-.954-2.016-1.602-4.332-3.135-5.76-.485 1.355-1.717 1.95-2.62 2.88zm-157.517-.784c-2.6 1.576-5.936 4.702-9.158 6.543 8.722-.176 18.142.35 26.428-.27-6.4-1.456-11.657-4.037-17.27-6.273zm102.046 0c-5.42 2.428-11.204 4.5-17.005 6.543 8.633-.176 17.964.35 26.165-.27-3.747-1.396-6.084-4.203-9.16-6.273zm51.288 3.924c-1 1.184-2.727 1.64-3.927 2.627 2.88-.174 6.447.34 8.9-.27-1.838-.6-3.294-1.608-4.973-2.356zM12.55 235.22c2.88-.176 6.45.34 8.897-.27-2.808-2.4-6.17-2.163-8.897.27zm194.9-179.914h1.15v.95h-18.1v-.95h1.15c1 0 1.807-.177 2.42-.53.447-.24.8-.65 1.03-1.23.187-.407.28-1.48.28-3.22v-22.8c0-1.773-.093-2.88-.28-3.32-.187-.447-.567-.833-1.14-1.16-.573-.333-1.343-.5-2.3-.5h-1.15v-.95h18.1v.95h-1.15c-1 0-1.807.177-2.42.53-.447.24-.797.65-1.05 1.23-.187.407-.28 1.48-.28 3.22v22.8c0 1.773.097 2.88.3 3.32.2.447.583.837 1.15 1.17.573.327 1.343.5 2.3.5zm-169 147.788v9.6c0 1.873.113 3.053.34 3.54.233.487.643.873 1.23 1.16s1.663.43 3.23.43v.95h-17.6v-.95c1.6 0 2.687-.147 3.26-.44.567-.3.967-.7 1.2-1.17.227-.473.34-1.647.34-3.52v-22.5c0-1.873-.113-3.053-.34-3.54-.233-.48-.64-.867-1.22-1.16-.58-.287-1.66-.43-3.24-.43v-.95h15.1c4.973 0 8.543.887 10.7 2.66s3.24 3.987 3.24 6.64c0 2.253-.697 4.18-2.1 5.78s-3.327 2.7-5.78 3.27c-1.653.407-4.447.6-8.38.6zm1.05-16.96h-1.05v14.97a23.66 23.66 0 0 0 1.28.05c2.073 0 3.673-.617 4.8-1.85 1.127-1.24 1.7-3.153 1.7-5.74 0-2.573-.563-4.457-1.7-5.65-1.127-1.187-2.803-1.78-5.03-1.78zm169.38-2.798h.77l.28 11.55h-1.05c-.493-2.893-1.707-5.223-3.64-7-1.933-1.76-4.023-2.64-6.27-2.64-1.74 0-3.117.463-4.13 1.4s-1.52 1.997-1.52 3.2c0 .767.18 1.447.54 2.04.493.8 1.287 1.593 2.38 2.38.8.56 2.647 1.557 5.54 3 4.053 1.993 6.787 3.873 8.2 5.64a9.54 9.54 0 0 1 2.1 6.08c0 2.9-1.13 5.393-3.4 7.48-2.253 2.087-5.12 3.13-8.6 3.13a13.98 13.98 0 0 1-3.09-.33c-.967-.227-2.183-.647-3.65-1.26-.82-.34-1.493-.5-2.02-.5-.44 0-.9.17-1.4.5-.493.34-.893.86-1.2 1.56h-.94v-13.08h.94c.753 3.68 2.197 6.487 4.33 8.42 2.14 1.933 4.447 2.9 6.92 2.9 1.907 0 3.427-.52 4.56-1.56s1.7-2.25 1.7-3.63c0-.813-.22-1.603-.66-2.37-.433-.767-1.093-1.497-1.98-2.2-.88-.687-2.447-1.583-4.7-2.7-3.147-1.553-5.4-2.873-6.8-3.96-1.38-1.093-2.44-2.313-3.18-3.66-.747-1.347-1.12-2.827-1.12-4.44 0-2.76 1.013-5.113 3.04-7.06 2.033-1.94 4.6-2.9 7.67-2.9 1.127 0 2.217.137 3.27.4.8.207 1.777.587 2.93 1.14 1.147.553 1.95.83 2.4.83s.797-.137 1.05-.4.5-.93.7-1.97z"/><path d="M20.15 49.944l1.294-.507c3.767-1.512 7.12-3.675 10.1-6.427 2.684-2.483 4.928-5.315 6.838-8.42 1.74-2.82 3.137-5.813 4.17-8.965l1.04-3.2c.196-.6.496-1.137 1.055-1.47a2.59 2.59 0 0 1 2.417-.166c.798.336 1.155 1.14.902 2.048-.703 2.54-1.476 5.05-2.6 7.444-.828 1.76-1.87 3.4-3.026 4.966-1.256 1.7-2.546 3.377-3.96 4.957-2.585 2.88-5.577 5.255-8.9 7.23a43.25 43.25 0 0 1-9.006 4.029c-.857.277-1.727.537-2.625.66-.653.1-1.315.127-1.97.025-.64-.102-.822-.388-.673-1.018l.845-3.45 2.338-9.472 3.18-13.04c.02-.1.04-.183.05-.27.047-.485-.162-.822-.646-1a5.61 5.61 0 0 0-1.876-.328l-2.014-.03c-.332-.008-.507-.158-.54-.485a3.13 3.13 0 0 1 0-.826c.083-.558.383-.8 1.003-.87l7.627-.698c.45-.042.907-.064 1.36-.042a.56.56 0 0 1 .58.66c-.038.4-.13.796-.23 1.192L23.775 34.9l-2.236 9.05-1.365 5.822c-.01.045-.013.092-.025.164zm38.527-8.93l.92-1.1c.94-1.112 2.035-2.036 3.366-2.64a7.85 7.85 0 0 1 3.907-.673c.82.064 1.6.23 2.328.64.894.507 1.543 1.248 1.806 2.24.328 1.235-.03 2.3-.962 3.186-.433.4-.916.7-1.514.788-.698.094-1.353-.05-1.915-.485-.502-.383-.637-.933-.583-1.538.122-1.482.967-2.364 2.34-2.802l.232-.072c-.354-.234-.707-.396-1.082-.52-1.017-.32-2.02-.196-3.014.115-1.182.366-2.176 1.048-3.053 1.904-.854.843-1.6 1.8-2.255 2.8s-1.02 2.138-1.307 3.3L55.074 57.6l-1.086 4.268c-.266 1.043-1.225 1.576-1.968 1.635-.667.06-1.22-.136-1.604-.715a1.42 1.42 0 0 1-.207-1.175l3.075-12.45 1.252-5.15c.23-1.04.345-2.1.483-3.156a5.44 5.44 0 0 0 .027-1.197c-.036-.417-.215-.8-.44-1.154-.358-.562-1.1-.766-1.84-.536-.54.17-.956.515-1.327.928-.638.7-1.033 1.546-1.36 2.436-.52 1.414-.907 2.866-1.3 4.314l-.053.188c-.135.413-.454.596-.837.494-.42-.115-.62-.426-.524-.852.45-1.997 1.003-3.96 1.915-5.805.35-.703.756-1.363 1.318-1.917a3.93 3.93 0 0 1 2.834-1.171c1.106-.004 2.14.264 3.062.898 1.042.724 1.67 1.738 1.998 2.943l.185.588z" stroke="#5339d3" stroke-width="1.572" stroke-miterlimit="10"/></g></svg>